<svg viewBox="0 0 16 16" id="mastodon" xmlns="http://www.w3.org/2000/svg"><path d="M7.478 0C5.56.016 3.716.223 2.64.717c0 0-2.132.954-2.132 4.208 0 .745-.015 1.636.009 2.58.077 3.183.583 6.319 3.525 7.098 1.357.359 2.522.434 3.46.382 1.7-.094 2.656-.607 2.656-.607l-.057-1.234s-1.215.383-2.58.337c-1.353-.047-2.781-.146-3-1.807a3.406 3.406 0 0 1-.03-.466s1.328.325 3.01.402c1.03.047 1.994-.06 2.974-.177 1.88-.225 3.516-1.383 3.722-2.44.324-1.668.297-4.068.297-4.068 0-3.254-2.132-4.208-2.132-4.208C11.288.223 9.443.016 7.525 0Zm-2.17 2.542c.798 0 1.403.308 1.803.922l.389.651.389-.651c.4-.614 1.005-.922 1.803-.922.69 0 1.247.243 1.672.717.412.473.617 1.113.617 1.918v3.94H10.42V5.293c0-.806-.34-1.215-1.018-1.215-.75 0-1.126.485-1.126 1.445v2.093H6.724V5.523c0-.96-.376-1.445-1.126-1.445-.678 0-1.018.409-1.018 1.215v3.824H3.02v-3.94c0-.805.204-1.445.616-1.918.425-.474.981-.717 1.672-.717Z" /></svg>
