<svg id="twitter" xmlns="http://www.w3.org/2000/svg" viewBox="0 0 16 16"><path d="M14.967 2.01c-.58.348-1.199.619-1.895.735-.542-.58-1.315-.967-2.166-.967-1.624 0-2.978 1.354-2.978 3.055 0 .232.039.465.078.697-2.476-.116-4.641-1.354-6.11-3.172-.272.464-.388.967-.388 1.547 0 1.044.542 1.973 1.315 2.553-.503 0-.928-.155-1.353-.387v.039c0 1.47 1.005 2.707 2.397 2.978a2.494 2.494 0 01-.773.116c-.193 0-.387 0-.541-.04.386 1.2 1.47 2.09 2.784 2.128a5.838 5.838 0 01-3.674 1.315c-.232 0-.464 0-.696-.039a8.33 8.33 0 004.563 1.354c5.453 0 8.47-4.641 8.47-8.663v-.387a5.753 5.753 0 001.47-1.586c-.542.233-1.122.426-1.702.465.503-.426.967-1.006 1.199-1.74z"/></svg>
