<?xml version="1.0" encoding="UTF-8" standalone="no"?>
<svg
   sodipodi:docname="card.svg"
   inkscape:version="1.1.1 (3bf5ae0d25, 2021-09-20)"
   id="svg10448"
   version="1.1"
   viewBox="0 0 158.75 105.83334"
   height="400.00003"
   width="600"
   inkscape:export-filename="/home/jimmac/src/git/gnome/containertoolbx.org/assets/card.png"
   inkscape:export-xdpi="192"
   inkscape:export-ydpi="192"
   xmlns:inkscape="http://www.inkscape.org/namespaces/inkscape"
   xmlns:sodipodi="http://sodipodi.sourceforge.net/DTD/sodipodi-0.dtd"
   xmlns="http://www.w3.org/2000/svg"
   xmlns:svg="http://www.w3.org/2000/svg"
   xmlns:rdf="http://www.w3.org/1999/02/22-rdf-syntax-ns#"
   xmlns:cc="http://creativecommons.org/ns#"
   xmlns:dc="http://purl.org/dc/elements/1.1/">
  <defs
     id="defs10442">
    <filter
       id="filter62647-5-1-29"
       inkscape:label="Better Shadow"
       style="color-interpolation-filters:sRGB"
       x="-0.14328897"
       y="-0.089033969"
       width="1.286578"
       height="1.3395338">
      <feFlood
         id="feFlood62637-04-2-75"
         result="flood"
         flood-color="rgb(0,0,0)"
         flood-opacity="0.180392" />
      <feComposite
         id="feComposite62639-87-2-64"
         result="composite1"
         operator="in"
         in2="SourceGraphic"
         in="flood" />
      <feGaussianBlur
         id="feGaussianBlur62641-1-7-63"
         result="blur"
         stdDeviation="7"
         in="composite1" />
      <feOffset
         id="feOffset62643-7-7-7"
         result="offset"
         dy="6"
         dx="0" />
      <feComposite
         id="feComposite62645-2-9-9"
         result="fbSourceGraphic"
         operator="over"
         in2="offset"
         in="SourceGraphic" />
      <feColorMatrix
         id="feColorMatrix62793-7-1-7"
         values="0 0 0 -1 0 0 0 0 -1 0 0 0 0 -1 0 0 0 0 1 0"
         in="fbSourceGraphic"
         result="fbSourceGraphicAlpha" />
      <feFlood
         in="fbSourceGraphic"
         result="flood"
         flood-color="rgb(0,0,0)"
         flood-opacity="0.34902"
         id="feFlood62795-2-4-49" />
      <feComposite
         result="composite1"
         operator="in"
         in="flood"
         id="feComposite62797-26-04-17"
         in2="fbSourceGraphic" />
      <feGaussianBlur
         result="blur"
         stdDeviation="3.5"
         in="composite1"
         id="feGaussianBlur62799-1-7-0" />
      <feOffset
         result="offset"
         dy="3"
         dx="0"
         id="feOffset62801-06-8-6" />
      <feComposite
         result="composite2"
         operator="over"
         in="fbSourceGraphic"
         id="feComposite62803-1-7-0"
         in2="offset" />
    </filter>
  </defs>
  <sodipodi:namedview
     inkscape:snap-bbox-midpoints="true"
     inkscape:snap-bbox-edge-midpoints="true"
     inkscape:bbox-nodes="true"
     inkscape:bbox-paths="true"
     inkscape:snap-bbox="true"
     inkscape:window-maximized="1"
     inkscape:window-y="0"
     inkscape:window-x="0"
     inkscape:window-height="1016"
     inkscape:window-width="1920"
     units="px"
     showgrid="false"
     inkscape:document-rotation="0"
     inkscape:current-layer="layer1"
     inkscape:document-units="px"
     inkscape:cy="153.7187"
     inkscape:cx="407.73045"
     inkscape:zoom="1"
     inkscape:pageshadow="2"
     inkscape:pageopacity="0.0"
     borderopacity="1.0"
     bordercolor="#666666"
     pagecolor="#ffffff"
     id="base"
     inkscape:snap-page="true"
     inkscape:snap-text-baseline="true"
     inkscape:snap-center="true"
     inkscape:snap-object-midpoints="true"
     inkscape:pagecheckerboard="1">
    <inkscape:grid
       originy="1.2031857e-13"
       originx="0"
       id="grid11077"
       type="xygrid" />
  </sodipodi:namedview>
  <metadata
     id="metadata10445">
    <rdf:RDF>
      <cc:Work
         rdf:about="">
        <dc:format>image/svg+xml</dc:format>
        <dc:type
           rdf:resource="http://purl.org/dc/dcmitype/StillImage" />
        <dc:title />
      </cc:Work>
    </rdf:RDF>
  </metadata>
  <g
     transform="translate(-459.7283,604.72058)"
     id="layer1"
     inkscape:groupmode="layer"
     inkscape:label="Layer 1">
    <rect
       y="-604.72058"
       x="459.7283"
       height="105.83334"
       width="158.75"
       id="rect965"
       style="fill:#613583;fill-opacity:1;stroke:none;stroke-width:0.26458597;stroke-linecap:butt;stroke-linejoin:miter;font-variation-settings:normal;opacity:1;vector-effect:none;stroke-miterlimit:4;stroke-dasharray:none;stroke-dashoffset:0;stroke-opacity:1;-inkscape-stroke:none;stop-color:#000000;stop-opacity:1"
       inkscape:export-xdpi="192"
       inkscape:export-ydpi="192" />
    <text
       id="text977"
       y="-642.84528"
       x="539.16895"
       style="font-style:normal;font-variant:normal;font-weight:800;font-stretch:normal;font-size:5.64444px;line-height:0%;font-family:Cantarell;-inkscape-font-specification:'Cantarell Ultra-Bold';text-align:center;letter-spacing:-0.105833px;word-spacing:0px;text-anchor:middle;display:inline;fill:#ffffff;fill-opacity:1;stroke:none;stroke-width:0.264583"
       xml:space="preserve"><tspan
         id="tspan973"
         y="-642.84528"
         x="539.16895"
         sodipodi:role="line"
         style="font-style:normal;font-variant:normal;font-weight:normal;font-stretch:normal;font-size:5.64444px;line-height:1.25;font-family:Cantarell;-inkscape-font-specification:'Cantarell Ultra-Bold';text-align:center;text-anchor:middle;fill:#ffffff;stroke-width:0.264583">Try the lastest and greatest GNOME software</tspan><tspan
         id="tspan975"
         y="-635.78973"
         x="539.11603"
         sodipodi:role="line"
         style="font-style:normal;font-variant:normal;font-weight:normal;font-stretch:normal;font-size:5.64444px;line-height:1.25;font-family:Cantarell;-inkscape-font-specification:'Cantarell Ultra-Bold';text-align:center;text-anchor:middle;fill:#ffffff;stroke-width:0.264583">in a VM or on real hardware</tspan></text>
    <g
       id="g1369"
       transform="translate(0.27289279,6.1960894)">
      <g
         id="g1053"
         transform="matrix(0.26458333,0,0,0.26458333,517.00735,-590.571)">
        <path
           id="path1013"
           d="m 89.879087,50.640063 -34.028851,19.778938 0.07577,25.827172 11.517546,-6.275209 c 0.02262,-12.441737 10.105704,-22.523067 22.551172,-22.523067 3.832981,0.0015 7.601951,0.98215 10.951066,2.846024 l -17.433573,10.340595 0.05089,13.159476 11.416442,6.546518 17.577361,-10.425188 c 0.001,0.02827 0.001,0.05655 0.001,0.08482 0,12.455028 -10.09688,22.551968 -22.55184,22.551968 -3.236532,0 -6.311285,-0.68693 -9.093582,-1.91471 l -12.020013,6.54844 21.228443,12.1741 34.028842,-19.77905 -0.11309,-39.359913 z"
           style="vector-effect:none;fill:#ffffff;fill-opacity:1;stroke:none;stroke-width:8.18415;stroke-linecap:butt;stroke-linejoin:miter;stroke-miterlimit:4;stroke-dasharray:none;stroke-dashoffset:0;stroke-opacity:1;marker:none;marker-start:none;marker-mid:none;marker-end:none;paint-order:normal;enable-background:new"
           inkscape:connector-curvature="0" />
      </g>
    </g>
    <g
       aria-label="toolbx"
       id="text2611"
       style="font-weight:900;font-size:11.8354px;line-height:1.25;font-family:Inter;-inkscape-font-specification:'Inter, Heavy';text-align:center;letter-spacing:0px;word-spacing:0px;text-anchor:middle;opacity:1;vector-effect:none;fill:#c061cb;stroke-width:0.130371;stop-color:#000000;stop-opacity:1"
       transform="translate(-1.0087955)">
      <path
         d="m 525.78861,-539.3712 h -1.10957 v -1.54667 h -2.32001 v 1.54667 h -0.82377 v 1.68116 h 0.82377 v 2.91683 c -0.0168,1.35333 0.81957,2.03841 2.42088,1.95015 0.52536,-0.0294 0.91623,-0.1387 1.12638,-0.20174 l -0.33623,-1.63073 c -0.0883,0.021 -0.31522,0.0672 -0.45392,0.0672 -0.30261,0 -0.4371,-0.13449 -0.4371,-0.40348 v -2.69827 h 1.10957 z"
         style="vector-effect:none;stop-color:#000000;stop-opacity:1"
         id="path3980" />
      <path
         d="m 529.77296,-532.79785 c 2.10146,0 3.34552,-1.34493 3.34552,-3.3287 0,-1.98378 -1.24406,-3.32871 -3.34552,-3.32871 -2.10146,0 -3.34552,1.34493 -3.34552,3.32871 0,1.98377 1.24406,3.3287 3.34552,3.3287 z m 0.0168,-1.71478 c -0.62203,0 -0.99189,-0.61783 -0.99189,-1.63073 0,-1.01291 0.36986,-1.63073 0.99189,-1.63073 0.58841,0 0.95827,0.61782 0.95827,1.63073 0,1.0129 -0.36986,1.63073 -0.95827,1.63073 z"
         style="vector-effect:none;stop-color:#000000;stop-opacity:1"
         id="path3982" />
      <path
         d="m 537.17006,-532.79785 c 2.10146,0 3.34552,-1.34493 3.34552,-3.3287 0,-1.98378 -1.24406,-3.32871 -3.34552,-3.32871 -2.10145,0 -3.34552,1.34493 -3.34552,3.32871 0,1.98377 1.24407,3.3287 3.34552,3.3287 z m 0.0168,-1.71478 c -0.62203,0 -0.99188,-0.61783 -0.99188,-1.63073 0,-1.01291 0.36985,-1.63073 0.99188,-1.63073 0.58841,0 0.95827,0.61782 0.95827,1.63073 0,1.0129 -0.36986,1.63073 -0.95827,1.63073 z"
         style="vector-effect:none;stop-color:#000000;stop-opacity:1"
         id="path3984" />
      <path
         d="m 543.77702,-541.52309 h -2.32001 v 8.60756 h 2.32001 z"
         style="vector-effect:none;stop-color:#000000;stop-opacity:1"
         id="path3986" />
      <path
         d="m 544.9202,-532.91553 h 2.3032 v -1.05913 h 0.0504 c 0.26899,0.65565 0.89102,1.14319 1.79885,1.14319 1.37855,0 2.53856,-1.07594 2.53856,-3.31189 0,-2.33682 -1.24406,-3.3119 -2.52175,-3.3119 -0.95826,0 -1.56348,0.55479 -1.81566,1.21044 h -0.0336 v -3.27827 h -2.32001 z m 2.26957,-3.22783 c 0,-0.95827 0.38667,-1.52986 1.02551,-1.52986 0.63885,0 1.0087,0.57159 1.0087,1.52986 0,0.95826 -0.36985,1.52986 -1.0087,1.52986 -0.63884,0 -1.02551,-0.58841 -1.02551,-1.52986 z"
         style="vector-effect:none;stop-color:#000000;stop-opacity:1"
         id="path3988" />
      <path
         d="m 554.36833,-539.3712 h -2.32 l 1.71478,3.22784 -1.83247,3.22783 h 2.32001 l 1.05913,-2.05102 1.09276,2.05102 h 2.28639 l -1.81566,-3.22783 1.7316,-3.22784 h -2.3032 l -0.99189,2.00059 z"
         style="vector-effect:none;stop-color:#000000;stop-opacity:1"
         id="path3990" />
    </g>
  </g>
</svg>
